<?xml version="1.0" encoding="UTF-8"?> <svg xmlns="http://www.w3.org/2000/svg" width="213" height="68" viewBox="0 0 213 68" fill="none"><path d="M0.049416 43.1409L0 17.0782L29.3531 0L58.771 16.9677L58.8204 43.0287L41.1329 32.1589L41.1721 53.2967L34.0255 57.3614L33.9488 19.958L52.306 30.4895L52.2889 21.0341L29.5491 8.1447L6.8586 21.1497L6.87564 30.5745L25.6043 19.9733L25.6776 57.5977L18.819 53.7676L18.7781 32.2014L0.049416 43.1409Z" fill="#00C8AF"></path><path d="M25.6757 56.6882L18.8171 52.7459L18.8188 55.4676L25.6774 59.2977L25.6757 56.6882Z" fill="#001464"></path><path d="M41.172 55.1463L41.1703 52.445L34.0237 56.4689V57.8476L41.172 55.1463Z" fill="#001464"></path><path d="M58.8205 43.0287L58.8359 50.9218L29.585 68L0.0648965 51.034L0.0495605 43.1409L6.89283 39.1442L6.90816 47.1512L29.648 59.8604L52.3385 46.9098L52.3232 39.0354L58.8205 43.0287Z" fill="#001D99"></path><path d="M52.3249 39.7392L58.8223 43.8481L58.8206 43.0287L52.3232 39.0354L52.3249 39.7392Z" fill="#001464"></path><path d="M6.89453 39.9279L6.89283 39.1442L0.0495605 43.1409L0.0512645 43.9603L6.89453 39.9279Z" fill="#001464"></path><path d="M78.4369 47.5422C76.8368 47.5456 75.4958 47.3297 74.4512 46.903C73.4135 46.478 72.5717 45.8779 71.9515 45.1197C71.3278 44.3598 70.8865 43.4214 70.6377 42.3334C70.3855 41.2335 70.256 39.9942 70.2543 38.6512L70.2202 21.1106L75.8366 20.1977L75.8485 26.3721L85.1796 26.3551C85.1302 26.4112 85.0808 26.4673 85.0331 26.5234C84.8899 26.6917 84.7587 26.8532 84.6309 27.0181L84.602 27.0555C84.481 27.2119 84.3634 27.3717 84.2475 27.5366L84.1947 27.6131C84.0891 27.7661 83.9851 27.9208 83.8846 28.0789L83.8028 28.2115C83.7142 28.356 83.6256 28.5005 83.5404 28.6484C83.5148 28.6926 83.3921 28.917 83.3921 28.917C83.3325 29.0258 83.2711 29.1346 83.2149 29.2468C83.174 29.3267 83.1348 29.4083 83.0956 29.4882L83.007 29.6718C82.9746 29.7381 82.9406 29.8044 82.9099 29.8741C82.8111 30.09 82.7156 30.3093 82.6236 30.532C82.5657 30.6731 82.5112 30.8193 82.4583 30.9638L75.8553 30.9757L75.8707 38.5611C75.8724 39.8429 76.1058 40.8833 76.5642 41.6534C77.0396 42.4558 77.9905 42.8604 79.3894 42.857C80.0387 42.8553 80.7185 42.7924 81.407 42.67C81.7324 42.6122 82.0596 42.5391 82.38 42.4524C82.8656 43.8855 83.5745 45.1945 84.4861 46.3522C83.4858 46.6871 82.2164 47.0815 81.6421 47.2226C80.7782 47.4317 79.6996 47.5388 78.4369 47.5422Z" fill="#001D99"></path><path d="M97.1742 47.5881C95.3066 47.5915 93.6622 47.3161 92.2854 46.7687C90.9069 46.2213 89.7515 45.4631 88.8518 44.5162C87.9504 43.5676 87.2739 42.4252 86.8411 41.123C86.4049 39.8174 86.1817 38.3826 86.1783 36.8577C86.1748 35.0268 86.4577 33.3999 87.0166 32.0212C87.5806 30.6442 88.3287 29.4831 89.2386 28.5719C90.1554 27.6573 91.2204 26.9535 92.4047 26.4843C93.5992 26.0134 94.838 25.7737 96.0904 25.7703C99.0196 25.7652 101.366 26.6628 103.065 28.4427C104.063 29.4865 104.777 30.838 105.188 32.4598C105.486 33.6073 105.638 34.9265 105.641 36.3834C105.641 36.7098 105.629 37.0787 105.604 37.5122C105.604 37.5122 105.558 38.1888 105.539 38.4438L91.9412 38.4693L91.9633 38.6682C92.1048 39.9432 92.7114 40.9683 93.7679 41.7163C94.8124 42.4524 96.2267 42.8247 97.9699 42.8213C99.0639 42.8196 100.161 42.7159 101.23 42.5136C101.899 42.3861 103.724 41.8251 105.212 41.3338C105.287 41.6279 105.364 41.8982 105.444 42.1549C105.819 43.3602 106.34 44.4754 106.993 45.475C105.793 45.9017 103.648 46.6259 103.261 46.7432C102.731 46.8996 102.138 47.0407 101.497 47.1631C100.838 47.2838 100.132 47.3841 99.403 47.464C98.6277 47.5456 97.8984 47.5864 97.1742 47.5881ZM96.179 30.3348C95.4906 30.3365 94.884 30.4572 94.3762 30.6969C93.8735 30.9349 93.4509 31.2545 93.1169 31.6438C92.7795 32.0382 92.5205 32.4955 92.3433 33.0055C92.1678 33.4985 92.0366 34.0136 91.9565 34.5372L91.9241 34.7446L100.228 34.7293L100.218 34.5406C100.19 34.0221 100.1 33.5104 99.9466 33.0157C99.7915 32.5159 99.5495 32.0637 99.2292 31.6744C98.9037 31.2834 98.4914 30.9587 98.0057 30.7105C97.5167 30.4589 96.9015 30.3331 96.179 30.3348Z" fill="#001D99"></path><path d="M120.834 47.8178C118.941 47.8212 117.29 47.539 115.927 46.9797C114.565 46.4221 113.432 45.652 112.556 44.6898C111.68 43.7293 111.029 42.575 110.622 41.2592C110.213 39.9366 110.003 38.4797 110 36.9293C109.997 35.4367 110.24 34.0087 110.723 32.6861C111.205 31.3652 111.912 30.199 112.825 29.2198C113.739 28.2406 114.865 27.4501 116.174 26.8738C117.482 26.2975 118.995 26.0034 120.674 26C121.78 25.9983 122.806 26.0952 123.727 26.2907C124.288 26.4097 125.788 26.9044 127.108 27.3702C126.289 28.4463 125.619 29.6618 125.113 30.9878C125.053 31.1459 124.995 31.304 124.941 31.4655C124.419 31.2887 123.794 31.0847 123.455 31.0031C122.775 30.8416 122.005 30.76 121.165 30.7617C119.35 30.7651 117.973 31.3431 117.075 32.4787C116.186 33.6024 115.737 35.095 115.741 36.9157C115.744 38.8435 116.172 40.3616 117.012 41.4275C117.862 42.507 119.348 43.0544 121.43 43.0493C122.161 43.0476 122.954 42.9779 123.787 42.8419C124.13 42.7858 124.629 42.6498 125.038 42.5274C125.058 42.5886 125.079 42.6481 125.101 42.7076C125.634 44.1424 126.357 45.4463 127.251 46.5904C126.176 46.9576 124.89 47.3588 124.252 47.4914C123.221 47.7056 122.073 47.8144 120.834 47.8178Z" fill="#001D99"></path><path d="M138.702 47.5065C137.182 47.5099 135.78 47.2481 134.538 46.7279C133.294 46.2094 132.213 45.4648 131.326 44.5145C130.434 43.5642 129.729 42.3997 129.23 41.0567C128.729 39.7103 128.473 38.2024 128.47 36.5772C128.466 34.9537 128.724 33.4526 129.231 32.1164C129.739 30.7836 130.453 29.631 131.353 28.6892C132.253 27.7491 133.336 27.0079 134.579 26.4826C135.819 25.959 137.193 25.6904 138.66 25.6887C140.152 25.6853 141.541 25.9471 142.785 26.4673C144.029 26.9875 145.109 27.7253 145.999 28.6603C146.888 29.597 147.594 30.7479 148.093 32.079C148.594 33.4135 148.85 34.9146 148.853 36.5381C148.856 38.165 148.62 39.6746 148.149 41.0244C147.681 42.3691 146.994 43.5336 146.108 44.4873C145.224 45.4393 144.145 46.1873 142.904 46.7126C141.662 47.2362 140.248 47.5048 138.702 47.5065ZM138.67 30.4538C137.25 30.4572 136.134 31.0165 135.356 32.1181C134.591 33.1993 134.204 34.697 134.207 36.567C134.211 38.437 134.602 39.9466 135.371 41.0499C136.153 42.1753 137.271 42.7448 138.692 42.7431C140.113 42.7397 141.221 42.1668 141.988 41.0363C142.739 39.9279 143.117 38.4183 143.114 36.55C143.111 34.68 142.725 33.1857 141.969 32.1062C141.2 31.0063 140.089 30.4504 138.67 30.4538Z" fill="#001D99"></path><path d="M165.084 46.8961L165.063 35.9073C165.06 33.9608 164.791 32.5549 164.266 31.7287C163.722 30.877 162.712 30.4469 161.262 30.4504C160.831 30.4504 160.367 30.4724 159.881 30.5132C159.404 30.554 158.968 30.6016 158.588 30.6577L158.433 30.6799L158.464 46.9097L152.846 46.9199L152.808 26.899C153.793 26.6219 155.064 26.3567 156.588 26.1136C158.177 25.8603 159.868 25.7295 161.614 25.7261C163.375 25.7227 164.859 25.9521 166.024 26.406C167.18 26.8565 168.108 27.5042 168.783 28.3287C169.46 29.1566 169.949 30.1562 170.238 31.2986C170.53 32.4529 170.68 33.7585 170.681 35.1763L170.704 46.8859L165.084 46.8961Z" fill="#001D99"></path><path d="M185.288 47.4181C183.395 47.4215 181.744 47.1393 180.38 46.58C179.019 46.0224 177.886 45.2506 177.01 44.2901C176.134 43.3296 175.483 42.1753 175.076 40.8595C174.665 39.5369 174.457 38.0817 174.454 36.5296C174.45 35.037 174.694 33.609 175.176 32.2864C175.659 30.9655 176.366 29.7993 177.279 28.8201C178.192 27.8409 179.319 27.0504 180.626 26.4741C181.934 25.8978 183.448 25.6037 185.126 25.6003C186.23 25.5986 187.258 25.6955 188.178 25.891C188.756 26.0134 190.247 26.537 191.528 27.0147C190.794 28.0024 190.17 29.1159 189.676 30.3246C189.582 30.5541 189.492 30.8006 189.395 31.0896C188.641 30.8227 188.14 30.6595 187.905 30.6034C187.225 30.4419 186.455 30.3603 185.615 30.362C183.8 30.3654 182.423 30.9434 181.525 32.079C180.636 33.2027 180.188 34.6953 180.191 36.516C180.195 38.4438 180.622 39.9619 181.462 41.0278C182.313 42.1073 183.799 42.6547 185.881 42.6496C186.612 42.6479 187.404 42.5782 188.236 42.4422C188.51 42.398 188.9 42.2943 189.398 42.1362C189.401 42.1464 189.405 42.1549 189.406 42.1651C189.909 43.6764 190.654 45.0483 191.62 46.2485C190.598 46.5817 189.321 46.9642 188.701 47.0934C187.675 47.3076 186.527 47.4164 185.288 47.4181Z" fill="#001D99"></path><path d="M203.865 47.3824C201.997 47.3858 200.351 47.1104 198.974 46.5647C197.599 46.019 196.446 45.2625 195.544 44.3122C194.641 43.3636 193.965 42.2229 193.532 40.9207C193.096 39.6117 192.874 38.1769 192.871 36.6554C192.867 34.8194 193.15 33.1908 193.711 31.8189C194.271 30.4453 195.018 29.2859 195.933 28.3713C196.846 27.4567 197.911 26.7546 199.097 26.2837C200.286 25.8111 201.525 25.5714 202.781 25.5697C205.712 25.5646 208.058 26.4639 209.757 28.2421C211.458 30.0237 212.325 32.6944 212.332 36.1794C212.332 36.5143 212.32 36.8849 212.295 37.3099C212.272 37.6533 212.25 37.9627 212.23 38.2415L198.632 38.267L198.654 38.4659C198.795 39.7409 199.402 40.766 200.46 41.5123C201.505 42.2501 202.917 42.6224 204.661 42.619C205.763 42.6173 206.86 42.5119 207.924 42.3096C208.881 42.126 209.691 41.9016 210.337 41.6415L211.088 46.1261C210.793 46.2621 210.412 46.4015 209.953 46.5392C209.427 46.6973 208.832 46.8384 208.188 46.9574C207.54 47.0781 206.835 47.1784 206.095 47.26C205.352 47.3399 204.604 47.3824 203.865 47.3824ZM202.87 30.1308C202.178 30.1325 201.571 30.2532 201.069 30.4912C200.566 30.7292 200.142 31.0488 199.806 31.4398C199.472 31.8308 199.213 32.2881 199.034 32.7998C198.859 33.3013 198.729 33.8164 198.647 34.3332L198.615 34.5406L206.92 34.5253L206.91 34.3366C206.883 33.8198 206.791 33.3064 206.639 32.8134C206.484 32.3136 206.244 31.8614 205.922 31.4721C205.598 31.0811 205.187 30.7564 204.7 30.5082C204.206 30.2566 203.591 30.1308 202.87 30.1308Z" fill="#001D99"></path></svg> 