<svg width="55" height="64" viewBox="0 0 55 64" fill="none" xmlns="http://www.w3.org/2000/svg">
<path d="M0.0461942 40.3283L0 15.9648L27.4394 0L54.9393 15.8615L54.9855 40.2234L38.4512 30.0623L38.4878 49.8219L31.8072 53.6216L31.7355 18.6568L48.8958 28.5017L48.8798 19.6627L27.6226 7.61369L6.41144 19.7708L6.42737 28.5811L23.935 18.6711L24.0035 53.8425L17.5921 50.2621L17.5538 30.102L0.0461942 40.3283Z" fill="white"/>
<path d="M24.0018 52.9923L17.5903 49.3071L17.5919 51.8513L24.0034 55.4317L24.0018 52.9923Z" fill="white"/>
<path d="M38.4877 51.5509L38.4861 49.0258L31.8054 52.7873V54.0761L38.4877 51.5509Z" fill="white"/>
<path d="M54.9857 40.2234L55.0001 47.6019L27.6562 63.5666L0.0607229 47.7067L0.0463867 40.3283L6.4435 36.5921L6.45783 44.0771L27.7151 55.9577L48.9263 43.8514L48.912 36.4904L54.9857 40.2234Z" fill="white"/>
<path d="M48.9135 37.1483L54.9872 40.9893L54.9857 40.2234L48.9119 36.4904L48.9135 37.1483Z" fill="white"/>
<path d="M6.44509 37.3248L6.4435 36.5922L0.0463867 40.3283L0.0479796 41.0943L6.44509 37.3248Z" fill="white"/>
</svg>
