<svg width="137" height="158" viewBox="0 0 137 158" fill="none" xmlns="http://www.w3.org/2000/svg">
<path d="M0.11484 100.239L0 39.6817L68.2149 0L136.58 39.4249L136.695 99.9785L95.5905 74.7222L95.6816 123.836L79.0733 133.281L78.8951 46.373L121.556 70.8433L121.516 48.8734L68.6704 18.9245L15.939 49.142L15.9786 71.0408L59.5029 46.4086L59.6733 133.83L43.7343 124.931L43.6392 74.8209L0.11484 100.239Z" fill="#00C8AF"/>
<path d="M136.696 99.9785L136.731 118.318L68.7539 158L0.150874 118.579L0.115234 100.239L16.0186 90.9527L16.0542 109.557L68.9003 139.087L121.632 108.996L121.596 90.7L136.696 99.9785Z" fill="#001D99"/>
</svg>
