<svg width="233" height="62" viewBox="0 0 233 62" fill="none" xmlns="http://www.w3.org/2000/svg">
<path d="M228.262 45.3154C228.262 46.5078 228.382 47.3766 228.62 47.9217C228.859 48.4668 229.284 48.8245 229.898 48.9949C230.545 49.1652 231.448 49.2674 232.606 49.3015V50.4768H221.108V49.3015C221.857 49.2674 222.454 49.1652 222.897 48.9949C223.339 48.8245 223.663 48.4668 223.867 47.9217C224.072 47.3766 224.174 46.5078 224.174 45.3154V16.9022C224.174 15.9482 224.021 15.335 223.714 15.0625C223.442 14.7899 223.067 14.6536 222.59 14.6536C222.147 14.6536 221.67 14.7218 221.159 14.858C220.682 14.9943 220.239 15.1647 219.83 15.3691L219.319 14.1937L228.16 10.1055L228.467 10.4121C228.433 10.6846 228.382 11.4171 228.313 12.6095C228.279 13.8019 228.262 15.2158 228.262 16.8511V45.3154Z" fill="white"/>
<path d="M215.569 46.5432L216.08 47.7185L207.801 51.5513L207.495 51.2446C207.563 50.938 207.631 50.3418 207.699 49.456C207.801 48.5362 207.853 47.5652 207.853 46.5432H207.75C206.422 47.9059 205.042 49.0302 203.611 49.916C202.214 50.8017 200.63 51.2446 198.858 51.2446C196.712 51.2446 195.213 50.6995 194.361 49.6093C193.544 48.5191 193.135 47.1053 193.135 45.3678V33.6141C193.135 32.7283 192.982 32.1491 192.675 31.8766C192.402 31.604 192.028 31.4678 191.551 31.4678C190.869 31.4678 190.137 31.6381 189.353 31.9788L188.842 30.8034L197.121 26.9707L197.428 27.2773C197.394 27.5499 197.342 28.2823 197.274 29.4747C197.24 30.6331 197.223 31.9958 197.223 33.563V44.0902C197.223 45.2826 197.462 46.2195 197.939 46.9009C198.45 47.5823 199.352 47.9229 200.647 47.9229C201.737 47.9229 202.862 47.7015 204.02 47.2586C205.212 46.7816 206.439 46.0321 207.699 45.0101V33.6141C207.699 32.7283 207.563 32.1491 207.29 31.8766C207.018 31.604 206.626 31.4678 206.115 31.4678C205.672 31.4678 205.212 31.5529 204.735 31.7233C204.258 31.8596 203.832 32.0129 203.458 32.1832L202.947 31.0078L211.685 26.9707L211.992 27.2773C211.958 27.5499 211.907 28.2823 211.839 29.4747C211.805 30.6331 211.788 31.9958 211.788 33.563V44.7545C211.788 45.7085 211.924 46.3217 212.196 46.5943C212.503 46.8668 212.895 47.0031 213.372 47.0031C214.121 47.0031 214.854 46.8498 215.569 46.5432Z" fill="white"/>
<path d="M189.4 10.1061C189.809 12.4569 189.809 14.8076 189.4 17.1584H188.224C188.088 15.5912 187.748 14.4158 187.202 13.6322C186.657 12.8487 185.789 12.4569 184.596 12.4569C180.576 12.4569 178.566 16.477 178.566 24.5172V27.9922H186.129V30.0874H180.15C179.571 30.0874 179.162 30.2067 178.924 30.4451C178.685 30.6836 178.566 31.0924 178.566 31.6716V45.3161C178.566 46.5085 178.685 47.3773 178.924 47.9224C179.196 48.4675 179.707 48.8252 180.457 48.9955C181.24 49.1659 182.399 49.2681 183.932 49.3021V50.4775H171.412V49.3021C172.161 49.2681 172.757 49.1659 173.2 48.9955C173.643 48.8252 173.967 48.4675 174.171 47.9224C174.376 47.3773 174.478 46.5085 174.478 45.3161V30.0874H170.952V27.9922H174.478V24.3639C174.478 20.9911 175.108 18.1974 176.369 15.983C177.629 13.7685 179.384 12.1673 181.632 11.1793C183.881 10.1572 186.47 9.79952 189.4 10.1061Z" fill="white"/>
<path d="M155.665 51.245C153.246 51.245 151.389 50.7851 150.095 49.8652C148.8 48.9453 148.153 47.77 148.153 46.3391C148.153 45.8281 148.255 45.2659 148.459 44.6527C148.664 44.0054 149.022 43.3751 149.533 42.7619H150.708C150.742 44.9423 151.202 46.6116 152.088 47.77C152.974 48.9283 154.37 49.5075 156.278 49.5075C157.982 49.5075 159.242 49.0987 160.06 48.281C160.877 47.4634 161.286 46.5265 161.286 45.4703C161.286 44.5164 160.98 43.7328 160.366 43.1196C159.787 42.5064 159.021 41.9783 158.067 41.5354C157.147 41.0584 156.159 40.6156 155.103 40.2067C154.047 39.7638 153.042 39.2869 152.088 38.7758C151.168 38.2307 150.401 37.5664 149.788 36.7828C149.209 35.9992 148.919 35.0113 148.919 33.8189C148.919 31.9451 149.669 30.3779 151.168 29.1174C152.667 27.8568 154.762 27.2266 157.454 27.2266C158.51 27.2266 159.583 27.3288 160.673 27.5332C161.763 27.7035 162.785 28.0612 163.739 28.6063V34.4832H162.564C162.325 32.4731 161.678 31.0593 160.622 30.2416C159.566 29.3899 158.322 28.9641 156.891 28.9641C155.495 28.9641 154.439 29.2707 153.723 29.8839C153.008 30.4972 152.65 31.2978 152.65 32.2858C152.65 33.2056 152.939 33.9722 153.519 34.5854C154.132 35.1646 154.898 35.6756 155.818 36.1185C156.772 36.5614 157.76 37.0043 158.782 37.4472C159.838 37.856 160.826 38.35 161.746 38.9292C162.7 39.4743 163.467 40.1727 164.046 41.0244C164.659 41.842 164.966 42.8811 164.966 44.1417C164.966 46.4243 164.08 48.1788 162.308 49.4053C160.537 50.6317 158.322 51.245 155.665 51.245Z" fill="white"/>
<path d="M132.611 51.245C130.192 51.245 128.335 50.7851 127.041 49.8652C125.746 48.9453 125.099 47.77 125.099 46.3391C125.099 45.8281 125.201 45.2659 125.405 44.6527C125.61 44.0054 125.967 43.3751 126.478 42.7619H127.654C127.688 44.9423 128.148 46.6116 129.034 47.77C129.919 48.9283 131.316 49.5075 133.224 49.5075C134.927 49.5075 136.188 49.0987 137.006 48.281C137.823 47.4634 138.232 46.5265 138.232 45.4703C138.232 44.5164 137.925 43.7328 137.312 43.1196C136.733 42.5064 135.967 41.9783 135.013 41.5354C134.093 41.0584 133.105 40.6156 132.049 40.2067C130.993 39.7638 129.987 39.2869 129.034 38.7758C128.114 38.2307 127.347 37.5664 126.734 36.7828C126.155 35.9992 125.865 35.0113 125.865 33.8189C125.865 31.9451 126.615 30.3779 128.114 29.1174C129.613 27.8568 131.708 27.2266 134.399 27.2266C135.456 27.2266 136.529 27.3288 137.619 27.5332C138.709 27.7035 139.731 28.0612 140.685 28.6063V34.4832H139.51C139.271 32.4731 138.624 31.0593 137.568 30.2416C136.512 29.3899 135.268 28.9641 133.837 28.9641C132.44 28.9641 131.384 29.2707 130.669 29.8839C129.953 30.4972 129.596 31.2978 129.596 32.2858C129.596 33.2056 129.885 33.9722 130.464 34.5854C131.078 35.1646 131.844 35.6756 132.764 36.1185C133.718 36.5614 134.706 37.0043 135.728 37.4472C136.784 37.856 137.772 38.35 138.692 38.9292C139.646 39.4743 140.413 40.1727 140.992 41.0244C141.605 41.842 141.912 42.8811 141.912 44.1417C141.912 46.4243 141.026 48.1788 139.254 49.4053C137.483 50.6317 135.268 51.245 132.611 51.245Z" fill="white"/>
<path d="M115.544 45.3156C115.544 46.508 115.663 47.3768 115.902 47.9219C116.14 48.467 116.566 48.8247 117.179 48.995C117.827 49.1654 118.73 49.2676 119.888 49.3016V50.477H108.39V49.3016C109.139 49.2676 109.735 49.1654 110.178 48.995C110.621 48.8247 110.945 48.467 111.149 47.9219C111.354 47.3768 111.456 46.508 111.456 45.3156V33.7663C111.456 32.8124 111.303 32.1992 110.996 31.9266C110.723 31.62 110.349 31.4667 109.872 31.4667C109.429 31.4667 108.952 31.5519 108.441 31.7222C107.964 31.8585 107.521 32.0118 107.112 32.1821L106.601 31.0068L115.442 26.9696L115.749 27.2763C115.714 27.5488 115.663 28.2813 115.595 29.4737C115.561 30.6661 115.544 32.0799 115.544 33.7152V45.3156ZM113.5 22.166C112.75 22.166 112.12 21.9104 111.609 21.3994C111.098 20.8884 110.843 20.2581 110.843 19.5086C110.843 18.7932 111.098 18.1799 111.609 17.6689C112.12 17.1579 112.75 16.9023 113.5 16.9023C114.249 16.9023 114.88 17.1579 115.391 17.6689C115.902 18.1799 116.157 18.7932 116.157 19.5086C116.157 20.2581 115.902 20.8884 115.391 21.3994C114.88 21.9104 114.249 22.166 113.5 22.166Z" fill="white"/>
<path d="M73.2776 50.4753V49.3C74.1974 49.2659 74.9129 49.1637 75.4239 48.9934C75.969 48.823 76.3438 48.4653 76.5482 47.9202C76.7526 47.3751 76.8548 46.5234 76.8548 45.365V21.6021C76.8548 20.4097 76.7185 19.558 76.446 19.047C76.2075 18.5019 75.7476 18.1442 75.0662 17.9738C74.3848 17.8035 73.3627 17.7013 72 17.6672V16.4918H76.8548C78.5241 16.4918 79.8869 16.4748 80.943 16.4407C81.9992 16.3726 82.9701 16.3215 83.8559 16.2874C84.7758 16.2534 85.8319 16.2363 87.0243 16.2363C90.6356 16.2363 93.2759 16.8666 94.9452 18.1271C96.6146 19.3536 97.4493 20.9719 97.4493 22.9819C97.4493 25.0601 96.7679 26.7124 95.4052 27.9389C94.0424 29.1654 92.3731 30.1363 90.3971 30.8518V30.954C92.4753 31.0562 94.315 31.465 95.9162 32.1805C97.5515 32.8618 98.8461 33.8328 99.8 35.0933C100.754 36.3539 101.231 37.887 101.231 39.6926C101.231 41.4642 100.754 43.1846 99.8 44.854C98.8802 46.4893 97.4152 47.835 95.4052 48.8912C93.4292 49.9473 90.84 50.4753 87.6375 50.4753H73.2776ZM81.1985 31.5672C81.6414 31.2606 82.0503 31.0732 82.425 31.0051C82.8338 30.9029 83.3108 30.8348 83.8559 30.8007C84.878 30.6985 85.9 30.5452 86.9221 30.3408C87.9782 30.1023 88.9321 29.7275 89.7838 29.2165C90.6696 28.7055 91.3851 28.0071 91.9302 27.1213C92.4753 26.2014 92.7478 25.0431 92.7478 23.6463C92.7478 22.045 92.3731 20.8526 91.6236 20.0691C90.874 19.2855 89.9372 18.7574 88.8129 18.4849C87.6886 18.2123 86.5303 18.076 85.3379 18.076C83.8729 18.076 82.8168 18.2634 82.1695 18.6382C81.5222 19.0129 81.1985 20.0009 81.1985 21.6021V31.5672ZM87.2287 48.6356C89.6476 48.6356 91.5213 48.1927 92.85 47.307C94.2128 46.4212 95.1667 45.331 95.7118 44.0364C96.2569 42.7077 96.5294 41.396 96.5294 40.1014C96.5294 38.2277 96.0525 36.7457 95.0986 35.6555C94.1787 34.5312 92.9182 33.7306 91.3169 33.2536C89.7498 32.7426 87.9782 32.4871 86.0022 32.4871C84.3329 32.4871 83.1064 32.7085 82.3228 33.1514C81.5733 33.5602 81.1985 34.3438 81.1985 35.5022V45.365C81.1985 46.353 81.3689 47.0855 81.7096 47.5625C82.0503 48.0054 82.6465 48.2949 83.4982 48.4312C84.384 48.5675 85.6275 48.6356 87.2287 48.6356Z" fill="white"/>
<path d="M58.1752 40.5061L59.1792 43.3291C59.2222 43.45 59.3073 43.5458 59.4147 43.5941L61.9229 44.7241C62.2772 44.8837 62.2772 45.4484 61.9229 45.608L59.4147 46.7379C59.3073 46.7863 59.2222 46.8821 59.1792 47.003L58.1752 49.826C58.0333 50.2249 57.5318 50.2249 57.3899 49.826L56.3859 47.003C56.3429 46.8821 56.2579 46.7863 56.1504 46.7379L53.6422 45.608C53.2879 45.4484 53.2879 44.8837 53.6422 44.7241L56.1504 43.5941C56.2578 43.5458 56.3429 43.45 56.3859 43.3291L57.3899 40.5061C57.5318 40.1073 58.0333 40.1073 58.1752 40.5061Z" fill="white"/>
<path d="M27.3583 46.5037C28.569 46.5037 29.5505 45.5222 29.5505 44.3114C29.5505 43.1007 28.569 42.1191 27.3583 42.1191C26.1475 42.1191 25.166 43.1007 25.166 44.3114C25.166 45.5222 26.1475 46.5037 27.3583 46.5037Z" fill="white"/>
<path d="M35.6031 52.6394C36.0857 52.4393 36.3148 51.8859 36.1147 51.4033C35.9147 50.9207 35.3613 50.6917 34.8787 50.8917C34.3961 51.0917 34.167 51.6451 34.3671 52.1277C34.5671 52.6103 35.1205 52.8394 35.6031 52.6394Z" fill="white"/>
<path d="M5.4038 31.7922L6.14848 33.8862C6.18043 33.9759 6.24347 34.0469 6.32315 34.0829L8.1837 34.9211C8.44654 35.0395 8.44654 35.4583 8.1837 35.5767L6.32315 36.4149C6.24347 36.4509 6.18031 36.5218 6.14848 36.6116L5.4038 38.7056C5.29862 39.0015 4.92646 39.0015 4.82127 38.7056L4.07659 36.6116C4.04464 36.5219 3.9816 36.4509 3.90192 36.4149L2.04137 35.5767C1.77853 35.4583 1.77853 35.0395 2.04137 34.9211L3.90192 34.0829C3.9816 34.0469 4.04464 33.976 4.07659 33.8862L4.82127 31.7922C4.92658 31.4963 5.29862 31.4963 5.4038 31.7922Z" fill="white"/>
<path d="M61.9437 19.2961C61.599 14.2008 57.3418 10.1744 52.2257 10.118C49.0226 10.0793 46.0011 11.6099 44.1255 14.2098C42.5919 11.9822 40.2278 10.5003 37.6011 10.07C37.5899 9.97227 37.5774 9.87461 37.5627 9.77769C37.3897 7.21034 36.2685 4.8173 34.4016 3.03388C32.5102 1.22701 30.0274 0.216081 27.4105 0.187294C24.0328 0.14709 20.8524 1.77419 18.897 4.53417C17.0031 1.7318 13.8597 0.0377747 10.4815 0.000728769C10.4425 0.000242922 10.4039 0 10.3649 0C4.92221 0 0.436015 4.20902 0.0975006 9.64371C-0.977802 16.2437 7.0478 25.2111 13.9845 31.5822C14.3795 31.945 14.8099 32.2585 15.266 32.5225L14.4696 33.902C13.8295 35.0108 13.8295 36.3347 14.4696 37.4434C15.1097 38.5523 16.2562 39.2142 17.5366 39.2142H17.6247C17.5535 39.9085 17.3695 40.3293 17.1489 40.8308C16.8141 41.5922 16.4345 42.4554 16.4345 44.1019C16.4345 45.7483 16.8141 46.6115 17.1491 47.3729C17.4327 48.0179 17.6566 48.5273 17.6566 49.66C17.6566 50.793 17.4325 51.3024 17.1489 51.9474C16.8141 52.709 16.4345 53.5724 16.4345 55.2189C16.4345 56.8654 16.8141 57.7287 17.1489 58.4904C17.4327 59.1354 17.6566 59.645 17.6566 60.7779C17.6566 61.4528 18.2038 62 18.8788 62C19.5538 62 20.1011 61.4528 20.1011 60.7779C20.1011 59.1313 19.7215 58.268 19.3866 57.5064C19.1029 56.8613 18.8789 56.3518 18.8789 55.2189C18.8789 54.0859 19.1029 53.5765 19.3866 52.9314C19.7215 52.1698 20.1011 51.3065 20.1011 49.66C20.1011 48.0135 19.7215 47.1504 19.3866 46.389C19.1029 45.744 18.8789 45.2346 18.8789 44.1019C18.8789 42.9691 19.1029 42.4597 19.3866 41.8147C19.6727 41.1643 19.9905 40.4378 20.0774 39.2142H20.1162C21.3966 39.2142 22.5432 38.5523 23.1833 37.4434C23.8234 36.3347 23.8234 35.0108 23.1833 33.902L22.4296 32.5969C22.9323 32.3203 23.4051 31.9838 23.8369 31.5902C25.3162 30.2412 26.846 28.7704 28.325 27.2253C30.9199 31.7208 35.3586 36.372 39.4099 40.093C39.7741 40.4275 40.17 40.7182 40.5888 40.9652L39.8604 42.227C39.2406 43.3006 39.2406 44.5825 39.8604 45.656C40.4491 46.6755 41.4803 47.3037 42.6445 47.3644C42.7439 47.6251 42.8493 47.8548 42.9478 48.0677C43.2263 48.6702 43.4462 49.1458 43.4462 50.1991C43.4462 51.2527 43.2262 51.7286 42.9478 52.331C42.6253 53.0289 42.2239 53.8974 42.2239 55.4884C42.2239 57.0795 42.6253 57.9479 42.9478 58.6458C43.2262 59.2484 43.4462 59.7242 43.4462 60.7777C43.4462 61.4527 43.9935 61.9999 44.6684 61.9999C45.3434 61.9999 45.8906 61.4527 45.8906 60.7777C45.8906 59.1866 45.4892 58.3181 45.1667 57.6203C44.8883 57.0179 44.6683 56.5421 44.6683 55.4884C44.6683 54.4349 44.8883 53.959 45.1667 53.3566C45.4892 52.6587 45.8906 51.7903 45.8906 50.1991C45.8906 48.8463 45.6003 48.0166 45.3152 47.3693C46.5424 47.3589 47.6395 46.7205 48.2541 45.6558C48.8739 44.5824 48.8739 43.3005 48.2541 42.2268L47.5674 41.0374C48.03 40.7777 48.4656 40.4646 48.8647 40.1007V40.1005C55.3792 34.1604 62.9242 25.7374 61.9437 19.2961ZM21.0664 35.1242C21.3524 35.6193 21.1617 36.0563 21.0664 36.2213C20.9712 36.3862 20.688 36.7698 20.1164 36.7698H17.5366C16.965 36.7698 16.6818 36.3862 16.5866 36.2213C16.4913 36.0563 16.3006 35.6193 16.5866 35.1242L17.5934 33.3804C18.0242 33.4592 18.4642 33.5004 18.9093 33.5004H18.9104C19.3031 33.5004 19.6917 33.4671 20.0741 33.4057L21.0664 35.1242ZM22.1898 29.7838V29.7839C20.3163 31.4923 17.4997 31.4916 15.6381 29.7817C6.56438 21.448 1.78218 14.2342 2.51799 9.99C2.52601 9.94348 2.53135 9.89635 2.53403 9.84911C2.76614 5.68017 6.19781 2.4443 10.3658 2.4443C10.3952 2.4443 10.425 2.44454 10.4546 2.44479C13.0395 2.47321 15.4441 3.77455 16.8872 5.92552C17.3297 6.58518 18.0708 6.98443 18.8698 6.99329C19.6685 7.00471 20.4188 6.61943 20.8759 5.96961C22.3493 3.87439 24.7444 2.63087 27.2971 2.63087C27.3259 2.63087 27.3549 2.63111 27.3837 2.63135C31.4743 2.67654 34.8753 5.90754 35.1266 9.98709C35.1292 10.0268 35.1336 10.0665 35.1399 10.106C35.8413 14.4673 31.1212 21.6398 22.1898 29.7838ZM46.1373 43.4492C46.3938 43.8937 46.2228 44.2859 46.1373 44.4338C46.0518 44.5819 45.7976 44.9261 45.2846 44.9261H42.8301C42.3172 44.9261 42.0628 44.5819 41.9775 44.4338C41.8919 44.2858 41.7209 43.8935 41.9775 43.4492L42.9149 41.8254C43.3151 41.8961 43.7233 41.9336 44.1361 41.9338H44.1372C44.5001 41.9338 44.8596 41.9042 45.2136 41.8495L46.1373 43.4492ZM47.2177 38.2944C45.4577 39.8993 42.812 39.8985 41.0637 38.2926C35.7744 33.4345 32.0217 28.9809 30.0715 25.3356C33.7852 21.165 36.8728 16.6182 37.5254 12.5418C39.4006 12.9345 41.0727 14.045 42.1629 15.6704C42.595 16.3143 43.3184 16.7039 44.0982 16.7126C44.107 16.7127 44.1157 16.7127 44.1244 16.7127C44.8942 16.7127 45.6149 16.3404 46.0558 15.7133C47.4624 13.7132 49.7628 12.5368 52.1988 12.5622C56.06 12.6048 59.2706 15.6546 59.5078 19.5055C59.5104 19.5452 59.5147 19.5849 59.5211 19.6244C60.1851 23.7541 55.7007 30.559 47.2177 38.2944Z" fill="white"/>
<path d="M6.72619 12.736C6.11621 12.736 5.5887 12.2801 5.51424 11.6593C5.08828 8.10845 7.06179 6.23575 7.14596 6.15777C7.14596 6.15777 8.07745 5.24559 8.94882 6.2247C9.72946 7.10202 8.82056 7.93828 8.82056 7.93828C8.77355 7.9848 7.66983 9.10529 7.94129 11.368C8.0217 12.0382 7.54363 12.6466 6.8734 12.7272C6.82397 12.7331 6.77477 12.736 6.72619 12.736Z" fill="white"/>
</svg>
