<svg width="133" height="36" viewBox="0 0 133 36" fill="none" xmlns="http://www.w3.org/2000/svg">
<g clip-path="url(#clip0_129_2)">
<path d="M130.295 26.3122C130.295 27.0045 130.364 27.509 130.5 27.8255C130.636 28.142 130.879 28.3497 131.229 28.4487C131.599 28.5475 132.114 28.6069 132.775 28.6267V29.3091H126.212V28.6267C126.639 28.6069 126.98 28.5475 127.233 28.4487C127.485 28.3497 127.67 28.142 127.787 27.8255C127.904 27.509 127.962 27.0045 127.962 26.3122V9.81418C127.962 9.26024 127.875 8.90419 127.699 8.74596C127.544 8.58768 127.33 8.50854 127.058 8.50854C126.805 8.50854 126.533 8.54814 126.241 8.62722C125.969 8.70636 125.716 8.80531 125.482 8.92399L125.191 8.2415L130.237 5.86771L130.412 6.04573C130.393 6.20396 130.364 6.62928 130.325 7.32164C130.305 8.014 130.295 8.83498 130.295 9.78451V26.3122Z" fill="#BC7B77"/>
<path d="M123.05 27.0251L123.342 27.7075L118.616 29.933L118.441 29.7549C118.48 29.5769 118.519 29.2307 118.558 28.7164C118.616 28.1823 118.646 27.6185 118.646 27.0251H118.587C117.829 27.8163 117.041 28.4691 116.224 28.9835C115.427 29.4978 114.523 29.7549 113.511 29.7549C112.286 29.7549 111.431 29.4384 110.944 28.8054C110.478 28.1724 110.244 27.3515 110.244 26.3426V19.5179C110.244 19.0035 110.157 18.6672 109.982 18.509C109.826 18.3507 109.613 18.2716 109.34 18.2716C108.951 18.2716 108.533 18.3705 108.086 18.5683L107.794 17.8858L112.52 15.6604L112.695 15.8384C112.676 15.9967 112.646 16.422 112.607 17.1143C112.588 17.787 112.578 18.5782 112.578 19.4882V25.6008C112.578 26.2931 112.714 26.8371 112.987 27.2328C113.278 27.6284 113.793 27.8262 114.532 27.8262C115.155 27.8262 115.797 27.6976 116.458 27.4405C117.138 27.1635 117.839 26.7283 118.558 26.1349V19.5179C118.558 19.0035 118.48 18.6672 118.324 18.509C118.169 18.3507 117.945 18.2716 117.654 18.2716C117.401 18.2716 117.138 18.321 116.866 18.42C116.594 18.4991 116.35 18.5881 116.137 18.687L115.845 18.0045L120.833 15.6604L121.008 15.8384C120.989 15.9967 120.96 16.422 120.921 17.1143C120.902 17.787 120.892 18.5782 120.892 19.4882V25.9865C120.892 26.5404 120.97 26.8965 121.125 27.0547C121.3 27.213 121.524 27.2921 121.796 27.2921C122.224 27.2921 122.642 27.2031 123.05 27.0251Z" fill="#BC7B77"/>
<path d="M108.112 5.86805C108.346 7.23303 108.346 8.59795 108.112 9.96293H107.441C107.364 9.05294 107.169 8.37045 106.858 7.91546C106.547 7.46052 106.051 7.23303 105.37 7.23303C103.076 7.23303 101.928 9.56728 101.928 14.2358V16.2535H106.245V17.4701H102.832C102.502 17.4701 102.268 17.5394 102.133 17.6778C101.996 17.8163 101.928 18.0536 101.928 18.3899V26.3126C101.928 27.0049 101.996 27.5094 102.133 27.8259C102.288 28.1424 102.58 28.3501 103.008 28.449C103.455 28.5479 104.116 28.6073 104.991 28.627V29.3095H97.8446V28.627C98.2722 28.6073 98.6124 28.5479 98.8652 28.449C99.1181 28.3501 99.303 28.1424 99.4195 27.8259C99.5365 27.5094 99.5947 27.0049 99.5947 26.3126V17.4701H97.582V16.2535H99.5947V14.1468C99.5947 12.1884 99.9543 10.5662 100.674 9.28044C101.393 7.9946 102.395 7.06487 103.678 6.49119C104.962 5.89772 106.44 5.69003 108.112 5.86805Z" fill="#BC7B77"/>
<path d="M88.8561 29.7552C87.4753 29.7552 86.4153 29.4881 85.6766 28.954C84.9374 28.4198 84.5681 27.7374 84.5681 26.9066C84.5681 26.6099 84.6263 26.2834 84.7428 25.9274C84.8598 25.5515 85.0642 25.1855 85.3558 24.8295H86.0265C86.046 26.0955 86.3085 27.0648 86.8143 27.7374C87.32 28.41 88.1169 28.7463 89.206 28.7463C90.1787 28.7463 90.8979 28.5089 91.3648 28.0341C91.8312 27.5594 92.0646 27.0154 92.0646 26.4021C92.0646 25.8482 91.89 25.3932 91.5395 25.0372C91.209 24.6811 90.7717 24.3745 90.2272 24.1173C89.702 23.8404 89.1381 23.5832 88.5353 23.3458C87.9325 23.0887 87.3588 22.8117 86.8143 22.515C86.2891 22.1985 85.8513 21.8127 85.5014 21.3578C85.1709 20.9028 85.0054 20.3291 85.0054 19.6368C85.0054 18.5488 85.4335 17.6388 86.2891 16.9069C87.1448 16.1749 88.3406 15.809 89.8773 15.809C90.48 15.809 91.0925 15.8683 91.7147 15.987C92.3369 16.0859 92.9203 16.2936 93.4648 16.6101V20.0225H92.7941C92.6577 18.8553 92.2884 18.0344 91.6856 17.5596C91.0828 17.0651 90.3727 16.8179 89.5559 16.8179C88.759 16.8179 88.1563 16.9959 87.7476 17.3519C87.3394 17.708 87.1351 18.1729 87.1351 18.7466C87.1351 19.2807 87.3 19.7258 87.6311 20.0818C87.981 20.4182 88.4183 20.7149 88.9434 20.972C89.488 21.2292 90.0519 21.4864 90.6353 21.7435C91.2381 21.9809 91.8021 22.2677 92.3272 22.604C92.8718 22.9206 93.3096 23.3261 93.6401 23.8206C93.99 24.2954 94.1652 24.8987 94.1652 25.6307C94.1652 26.956 93.6595 27.9748 92.648 28.6869C91.6371 29.399 90.3727 29.7552 88.8561 29.7552Z" fill="#BC7B77"/>
<path d="M75.6964 29.7552C74.3156 29.7552 73.2556 29.4881 72.517 28.954C71.7778 28.4198 71.4084 27.7374 71.4084 26.9066C71.4084 26.6099 71.4667 26.2834 71.5831 25.9274C71.7001 25.5515 71.9039 25.1855 72.1956 24.8295H72.8669C72.8863 26.0955 73.1489 27.0648 73.6546 27.7374C74.1598 28.41 74.9572 28.7463 76.0463 28.7463C77.0184 28.7463 77.7382 28.5089 78.2051 28.0341C78.6715 27.5594 78.905 27.0154 78.905 26.4021C78.905 25.8482 78.7297 25.3932 78.3798 25.0372C78.0493 24.6811 77.6121 24.3745 77.0675 24.1173C76.5424 23.8404 75.9784 23.5832 75.3756 23.3458C74.7728 23.0887 74.1986 22.8117 73.6546 22.515C73.1295 22.1985 72.6916 21.8127 72.3417 21.3578C72.0112 20.9028 71.8457 20.3291 71.8457 19.6368C71.8457 18.5488 72.2738 17.6388 73.1295 16.9069C73.9851 16.1749 75.181 15.809 76.717 15.809C77.3204 15.809 77.9329 15.8683 78.5551 15.987C79.1772 16.0859 79.7606 16.2936 80.3052 16.6101V20.0225H79.6345C79.498 18.8553 79.1287 18.0344 78.5259 17.5596C77.9232 17.0651 77.2131 16.8179 76.3962 16.8179C75.5988 16.8179 74.996 16.9959 74.5879 17.3519C74.1792 17.708 73.9754 18.1729 73.9754 18.7466C73.9754 19.2807 74.1404 19.7258 74.4709 20.0818C74.8214 20.4182 75.2586 20.7149 75.7838 20.972C76.3283 21.2292 76.8923 21.4864 77.4756 21.7435C78.0784 21.9809 78.6424 22.2677 79.1675 22.604C79.7121 22.9206 80.1499 23.3261 80.4804 23.8206C80.8303 24.2954 81.0056 24.8987 81.0056 25.6307C81.0056 26.956 80.4998 27.9748 79.4883 28.6869C78.4774 29.399 77.2131 29.7552 75.6964 29.7552Z" fill="#BC7B77"/>
<path d="M65.9544 26.3123C65.9544 27.0046 66.0223 27.5091 66.1588 27.8256C66.2946 28.1421 66.5378 28.3498 66.8877 28.4487C67.2576 28.5477 67.773 28.607 68.434 28.6268V29.3092H61.8708V28.6268C62.2983 28.607 62.6385 28.5477 62.8914 28.4487C63.1443 28.3498 63.3292 28.1421 63.4457 27.8256C63.5627 27.5091 63.6209 27.0046 63.6209 26.3123V19.6062C63.6209 19.0524 63.5336 18.6963 63.3583 18.538C63.2025 18.36 62.989 18.271 62.7167 18.271C62.4639 18.271 62.1916 18.3205 61.8999 18.4193C61.6276 18.4985 61.3748 18.5875 61.1413 18.6864L60.8496 18.0039L65.8962 15.6598L66.0714 15.8379C66.0515 15.9961 66.0223 16.4214 65.9835 17.1138C65.9641 17.8061 65.9544 18.627 65.9544 19.5766V26.3123ZM64.7877 12.8706C64.3596 12.8706 63.9999 12.7222 63.7083 12.4255C63.4166 12.1287 63.271 11.7628 63.271 11.3276C63.271 10.9122 63.4166 10.5561 63.7083 10.2594C63.9999 9.96265 64.3596 9.81424 64.7877 9.81424C65.2152 9.81424 65.5754 9.96265 65.8671 10.2594C66.1588 10.5561 66.3043 10.9122 66.3043 11.3276C66.3043 11.7628 66.1588 12.1287 65.8671 12.4255C65.5754 12.7222 65.2152 12.8706 64.7877 12.8706Z" fill="#BC7B77"/>
<path d="M41.8279 29.3082V28.6258C42.3529 28.606 42.7614 28.5467 43.053 28.4478C43.3642 28.3488 43.5781 28.1411 43.6948 27.8246C43.8115 27.5081 43.8698 27.0136 43.8698 26.341V12.5431C43.8698 11.8508 43.792 11.3563 43.6365 11.0595C43.5003 10.743 43.2378 10.5353 42.8489 10.4364C42.4599 10.3375 41.8765 10.2782 41.0986 10.2584V9.57588H43.8698C44.8227 9.57588 45.6006 9.56601 46.2034 9.54621C46.8063 9.50666 47.3605 9.47699 47.8662 9.45719C48.3913 9.43745 48.9941 9.42752 49.6747 9.42752C51.7361 9.42752 53.2432 9.7935 54.1961 10.5254C55.149 11.2376 55.6255 12.1772 55.6255 13.3443C55.6255 14.551 55.2365 15.5104 54.4587 16.2226C53.6808 16.9347 52.7279 17.4985 51.6 17.9139V17.9733C52.7863 18.0326 53.8364 18.27 54.7504 18.6854C55.6838 19.081 56.4228 19.6448 56.9673 20.3767C57.5119 21.1087 57.7841 21.9989 57.7841 23.0473C57.7841 24.076 57.5119 25.075 56.9673 26.0442C56.4423 26.9938 55.606 27.7752 54.4587 28.3884C53.3308 29.0016 51.8528 29.3082 50.0248 29.3082H41.8279ZM46.3493 18.3293C46.6021 18.1513 46.8355 18.0425 47.0494 18.003C47.2827 17.9436 47.555 17.9041 47.8662 17.8843C48.4496 17.8249 49.033 17.7359 49.6164 17.6172C50.2192 17.4787 50.7637 17.2611 51.2499 16.9644C51.7555 16.6677 52.1639 16.2622 52.4751 15.7478C52.7863 15.2137 52.9418 14.5411 52.9418 13.7301C52.9418 12.8003 52.7279 12.108 52.3001 11.653C51.8722 11.198 51.3375 10.8914 50.6957 10.7332C50.0539 10.5749 49.3928 10.4957 48.7121 10.4957C47.8759 10.4957 47.273 10.6045 46.9035 10.8222C46.5341 11.0397 46.3493 11.6134 46.3493 12.5431V18.3293ZM49.7914 28.24C51.1722 28.24 52.2417 27.9828 53.0001 27.4686C53.778 26.9542 54.3225 26.3212 54.6337 25.5695C54.9448 24.798 55.1004 24.0364 55.1004 23.2847C55.1004 22.1967 54.8282 21.3362 54.2837 20.7032C53.7586 20.0504 53.0391 19.5855 52.125 19.3085C51.2305 19.0118 50.2192 18.8635 49.0913 18.8635C48.1384 18.8635 47.4383 18.992 46.991 19.2492C46.5632 19.4866 46.3493 19.9416 46.3493 20.6142V26.341C46.3493 26.9146 46.4465 27.34 46.641 27.6169C46.8355 27.8741 47.1758 28.0422 47.662 28.1213C48.1676 28.2005 48.8774 28.24 49.7914 28.24Z" fill="#BC7B77"/>
<path d="M33.2072 23.5197L33.7803 25.1588C33.8048 25.229 33.8534 25.2847 33.9147 25.3127L35.3464 25.9688C35.5487 26.0615 35.5487 26.3894 35.3464 26.4821L33.9147 27.1381C33.8534 27.1662 33.8048 27.2219 33.7803 27.2921L33.2072 28.9312C33.1262 29.1629 32.8399 29.1629 32.7589 28.9312L32.1858 27.2921C32.1613 27.2219 32.1128 27.1662 32.0514 27.1381L30.6197 26.4821C30.4175 26.3894 30.4175 26.0615 30.6197 25.9688L32.0514 25.3127C32.1127 25.2847 32.1613 25.229 32.1858 25.1588L32.7589 23.5197C32.8399 23.2881 33.1262 23.2881 33.2072 23.5197Z" fill="#BC7B77"/>
<path d="M15.6166 27.0021C16.3077 27.0021 16.868 26.4322 16.868 25.7292C16.868 25.0262 16.3077 24.4562 15.6166 24.4562C14.9255 24.4562 14.3652 25.0262 14.3652 25.7292C14.3652 26.4322 14.9255 27.0021 15.6166 27.0021Z" fill="#BC7B77"/>
<path d="M20.3228 30.5648C20.5982 30.4486 20.729 30.1273 20.6148 29.8471C20.5006 29.5669 20.1847 29.4339 19.9093 29.55C19.6338 29.6662 19.503 29.9875 19.6172 30.2677C19.7314 30.5479 20.0473 30.6809 20.3228 30.5648Z" fill="#BC7B77"/>
<path d="M3.08459 18.46L3.50966 19.6758C3.5279 19.7279 3.56388 19.7692 3.60937 19.7901L4.6714 20.2768C4.82143 20.3455 4.82143 20.5887 4.6714 20.6574L3.60937 21.1441C3.56388 21.165 3.52783 21.2062 3.50966 21.2583L3.08459 22.4742C3.02455 22.646 2.81211 22.646 2.75207 22.4742L2.32699 21.2583C2.30876 21.2063 2.27277 21.165 2.22729 21.1441L1.16526 20.6574C1.01523 20.5887 1.01523 20.3455 1.16526 20.2768L2.22729 19.7901C2.27277 19.7692 2.30876 19.728 2.32699 19.6758L2.75207 18.46C2.81218 18.2882 3.02455 18.2882 3.08459 18.46Z" fill="#BC7B77"/>
<path d="M35.3584 11.2042C35.1617 8.24563 32.7316 5.90772 29.8112 5.87497C27.9829 5.8525 26.2581 6.74123 25.1875 8.25085C24.3121 6.95741 22.9627 6.09695 21.4633 5.8471C21.4569 5.79035 21.4498 5.73364 21.4414 5.67737C21.3426 4.18665 20.7026 2.79714 19.637 1.76161C18.5573 0.712457 17.1401 0.125466 15.6463 0.108751C13.7183 0.0854071 11.9029 1.03017 10.7867 2.63274C9.70563 1.00556 7.91133 0.0219337 5.983 0.000423156C5.96074 0.000141051 5.93871 0 5.91645 0C2.80967 0 0.248884 2.44395 0.0556549 5.59957C-0.558145 9.43183 4.02299 14.6387 7.98257 18.3381C8.20804 18.5487 8.45372 18.7307 8.71407 18.884L8.25947 19.685C7.89409 20.3289 7.89409 21.0976 8.25947 21.7413C8.62485 22.3852 9.27929 22.7695 10.0102 22.7695H10.0605C10.0198 23.1727 9.91478 23.417 9.78886 23.7082C9.59775 24.1503 9.38107 24.6515 9.38107 25.6076C9.38107 26.5635 9.59775 27.0647 9.78897 27.5068C9.95086 27.8814 10.0787 28.1771 10.0787 28.8348C10.0787 29.4927 9.95074 29.7885 9.78886 30.163C9.59775 30.6052 9.38107 31.1066 9.38107 32.0626C9.38107 33.0186 9.59775 33.5199 9.78886 33.9622C9.95085 34.3367 10.0787 34.6326 10.0787 35.2904C10.0787 35.6823 10.391 36 10.7763 36C11.1616 36 11.474 35.6823 11.474 35.2904C11.474 34.3343 11.2573 33.833 11.0662 33.3908C10.9042 33.0162 10.7764 32.7204 10.7764 32.0626C10.7764 31.4047 10.9042 31.1089 11.0662 30.7344C11.2573 30.2921 11.474 29.7909 11.474 28.8348C11.474 27.8788 11.2573 27.3777 11.0662 26.9355C10.9042 26.561 10.7764 26.2652 10.7764 25.6076C10.7764 24.9498 10.9042 24.654 11.0662 24.2795C11.2295 23.9019 11.4109 23.48 11.4605 22.7695H11.4826C12.2135 22.7695 12.868 22.3852 13.2334 21.7413C13.5988 21.0976 13.5988 20.3289 13.2334 19.685L12.8032 18.9272C13.0901 18.7666 13.36 18.5712 13.6065 18.3427C14.4509 17.5594 15.3241 16.7054 16.1683 15.8082C17.6496 18.4185 20.1832 21.1192 22.4958 23.2798C22.7037 23.474 22.9297 23.6428 23.1687 23.7862L22.7529 24.5189C22.3991 25.1423 22.3991 25.8866 22.7529 26.5099C23.089 27.1019 23.6776 27.4667 24.3421 27.5019C24.3989 27.6533 24.459 27.7867 24.5153 27.9103C24.6742 28.2601 24.7998 28.5363 24.7998 29.1479C24.7998 29.7596 24.6742 30.036 24.5153 30.3857C24.3312 30.791 24.1021 31.2953 24.1021 32.2191C24.1021 33.1429 24.3312 33.6472 24.5153 34.0524C24.6742 34.4023 24.7998 34.6786 24.7998 35.2903C24.7998 35.6822 25.1122 35.9999 25.4974 35.9999C25.8827 35.9999 26.1951 35.6822 26.1951 35.2903C26.1951 34.3664 25.9659 33.8621 25.7819 33.4569C25.6229 33.1072 25.4974 32.8309 25.4974 32.2191C25.4974 31.6074 25.6229 31.331 25.7819 30.9813C25.9659 30.576 26.1951 30.0718 26.1951 29.1479C26.1951 28.3624 26.0294 27.8806 25.8666 27.5048C26.5671 27.4987 27.1934 27.128 27.5442 26.5098C27.898 25.8866 27.898 25.1422 27.5442 24.5188L27.1522 23.8282C27.4163 23.6774 27.6649 23.4956 27.8927 23.2843C31.6113 19.8352 35.9181 14.9443 35.3584 11.2042ZM12.025 20.3947C12.1883 20.6822 12.0794 20.9359 12.025 21.0317C11.9707 21.1275 11.809 21.3502 11.4828 21.3502H10.0102C9.68389 21.3502 9.52223 21.1275 9.46789 21.0317C9.41349 20.9359 9.30463 20.6822 9.46789 20.3947L10.0426 19.3822C10.2885 19.4279 10.5397 19.4518 10.7937 19.4518H10.7943C11.0185 19.4518 11.2403 19.4325 11.4586 19.3969L12.025 20.3947ZM12.6663 17.2938C11.5969 18.2858 9.9891 18.2854 8.92647 17.2926C3.74705 12.4537 1.0173 8.26502 1.43731 5.80064C1.44189 5.77363 1.44493 5.74627 1.44646 5.71884C1.57896 3.29816 3.53781 1.41927 5.91696 1.41927C5.93374 1.41927 5.95075 1.41941 5.96765 1.41956C7.44315 1.43606 8.81573 2.19167 9.63948 3.44062C9.89206 3.82365 10.3151 4.05548 10.7712 4.06062C11.2271 4.06725 11.6554 3.84354 11.9163 3.46623C12.7573 2.24965 14.1245 1.5276 15.5816 1.5276C15.598 1.5276 15.6146 1.52774 15.631 1.52788C17.966 1.55412 19.9074 3.43018 20.0508 5.79896C20.0523 5.82201 20.0548 5.84506 20.0584 5.868C20.4588 8.40037 17.7645 12.565 12.6663 17.2938ZM26.3359 25.2286C26.4823 25.4867 26.3847 25.7144 26.3359 25.8003C26.2871 25.8863 26.142 26.0861 25.8492 26.0861H24.4481C24.1553 26.0861 24.0101 25.8863 23.9614 25.8003C23.9125 25.7143 23.8149 25.4865 23.9614 25.2286L24.4965 24.2857C24.7249 24.3268 24.9579 24.3485 25.1936 24.3487H25.1942C25.4013 24.3487 25.6066 24.3315 25.8086 24.2997L26.3359 25.2286ZM26.9526 22.2355C25.948 23.1673 24.4378 23.1669 23.4398 22.2344C20.4206 19.4136 18.2785 16.8276 17.1653 14.711C19.2851 12.2894 21.0476 9.64928 21.4201 7.28234C22.4905 7.51035 23.4449 8.15516 24.0672 9.09894C24.3139 9.47282 24.7268 9.69904 25.1719 9.70409C25.177 9.70415 25.1819 9.70415 25.1869 9.70415C25.6263 9.70415 26.0377 9.48797 26.2894 9.12385C27.0923 7.9625 28.4054 7.27943 29.7959 7.29418C31.9999 7.31892 33.8326 9.08977 33.968 11.3258C33.9695 11.3488 33.9719 11.3719 33.9756 11.3948C34.3546 13.7927 31.7948 17.7439 26.9526 22.2355Z" fill="#BC7B77"/>
<path d="M3.83941 7.39511C3.49122 7.39511 3.19011 7.13039 3.14761 6.76993C2.90447 4.70814 4.03097 3.62077 4.07902 3.57549C4.07902 3.57549 4.61073 3.04584 5.10812 3.61435C5.55372 4.12377 5.03491 4.60934 5.03491 4.60934C5.00807 4.63635 4.37805 5.28695 4.53301 6.60079C4.57891 6.98993 4.30602 7.3432 3.92344 7.39C3.89522 7.39342 3.86714 7.39511 3.83941 7.39511Z" fill="#BC7B77"/>
</g>
<defs>
<clipPath id="clip0_129_2">
<rect width="133" height="36" fill="white"/>
</clipPath>
</defs>
</svg>
