<svg width="63" height="62" viewBox="0 0 63 62" fill="none" xmlns="http://www.w3.org/2000/svg">
<path d="M58.1752 40.5061L59.1792 43.3291C59.2222 43.45 59.3073 43.5458 59.4147 43.5941L61.9229 44.7241C62.2772 44.8837 62.2772 45.4484 61.9229 45.608L59.4147 46.7379C59.3073 46.7863 59.2222 46.8821 59.1792 47.003L58.1752 49.826C58.0333 50.2249 57.5318 50.2249 57.3899 49.826L56.3859 47.003C56.3429 46.8821 56.2579 46.7863 56.1504 46.7379L53.6422 45.608C53.2879 45.4484 53.2879 44.8837 53.6422 44.7241L56.1504 43.5941C56.2578 43.5458 56.3429 43.45 56.3859 43.3291L57.3899 40.5061C57.5318 40.1073 58.0333 40.1073 58.1752 40.5061Z" fill="#BC7B77"/>
<path d="M27.3583 46.5037C28.569 46.5037 29.5505 45.5222 29.5505 44.3114C29.5505 43.1007 28.569 42.1191 27.3583 42.1191C26.1475 42.1191 25.166 43.1007 25.166 44.3114C25.166 45.5222 26.1475 46.5037 27.3583 46.5037Z" fill="#BC7B77"/>
<path d="M35.6031 52.6394C36.0857 52.4393 36.3148 51.8859 36.1147 51.4033C35.9147 50.9207 35.3613 50.6917 34.8787 50.8917C34.3961 51.0917 34.167 51.6451 34.3671 52.1277C34.5671 52.6103 35.1205 52.8394 35.6031 52.6394Z" fill="#BC7B77"/>
<path d="M5.4038 31.7922L6.14848 33.8862C6.18043 33.9759 6.24347 34.0469 6.32315 34.0829L8.1837 34.9211C8.44654 35.0395 8.44654 35.4583 8.1837 35.5767L6.32315 36.4149C6.24347 36.4509 6.18031 36.5218 6.14848 36.6116L5.4038 38.7056C5.29862 39.0015 4.92646 39.0015 4.82127 38.7056L4.07659 36.6116C4.04464 36.5219 3.9816 36.4509 3.90192 36.4149L2.04137 35.5767C1.77853 35.4583 1.77853 35.0395 2.04137 34.9211L3.90192 34.0829C3.9816 34.0469 4.04464 33.976 4.07659 33.8862L4.82127 31.7922C4.92658 31.4963 5.29862 31.4963 5.4038 31.7922Z" fill="#BC7B77"/>
<path d="M61.9437 19.2961C61.599 14.2008 57.3418 10.1744 52.2257 10.118C49.0226 10.0793 46.0011 11.6099 44.1255 14.2098C42.5919 11.9822 40.2278 10.5003 37.6011 10.07C37.5899 9.97227 37.5774 9.87461 37.5627 9.77769C37.3897 7.21034 36.2685 4.8173 34.4016 3.03388C32.5102 1.22701 30.0274 0.216081 27.4105 0.187294C24.0328 0.14709 20.8524 1.77419 18.897 4.53417C17.0031 1.7318 13.8597 0.0377747 10.4815 0.000728769C10.4425 0.000242922 10.4039 0 10.3649 0C4.92221 0 0.436015 4.20902 0.0975007 9.64371C-0.977802 16.2437 7.0478 25.2111 13.9845 31.5822C14.3795 31.945 14.8099 32.2585 15.266 32.5225L14.4696 33.902C13.8295 35.0108 13.8295 36.3347 14.4696 37.4434C15.1097 38.5523 16.2562 39.2142 17.5366 39.2142H17.6247C17.5535 39.9085 17.3695 40.3293 17.1489 40.8308C16.8141 41.5922 16.4345 42.4554 16.4345 44.1019C16.4345 45.7483 16.8141 46.6115 17.1491 47.373C17.4327 48.0179 17.6566 48.5273 17.6566 49.66C17.6566 50.7929 17.4325 51.3024 17.1489 51.9474C16.8141 52.709 16.4345 53.5724 16.4345 55.2189C16.4345 56.8654 16.8141 57.7287 17.1489 58.4904C17.4327 59.1354 17.6566 59.645 17.6566 60.7779C17.6566 61.4528 18.2038 62 18.8788 62C19.5538 62 20.1011 61.4528 20.1011 60.7779C20.1011 59.1313 19.7215 58.268 19.3866 57.5064C19.1029 56.8613 18.8789 56.3518 18.8789 55.2189C18.8789 54.0859 19.1029 53.5765 19.3866 52.9314C19.7215 52.1698 20.1011 51.3065 20.1011 49.66C20.1011 48.0135 19.7215 47.1504 19.3866 46.389C19.1029 45.744 18.8789 45.2346 18.8789 44.1019C18.8789 42.9691 19.1029 42.4597 19.3866 41.8147C19.6727 41.1643 19.9905 40.4378 20.0774 39.2142H20.1162C21.3966 39.2142 22.5432 38.5523 23.1833 37.4434C23.8234 36.3347 23.8234 35.0108 23.1833 33.902L22.4296 32.5969C22.9323 32.3203 23.4051 31.9838 23.8369 31.5902C25.3162 30.2412 26.846 28.7704 28.325 27.2253C30.9199 31.7208 35.3586 36.372 39.4099 40.093C39.7741 40.4275 40.17 40.7182 40.5888 40.9652L39.8604 42.227C39.2406 43.3006 39.2406 44.5825 39.8604 45.656C40.4491 46.6755 41.4803 47.3037 42.6445 47.3644C42.7439 47.6251 42.8493 47.8548 42.9478 48.0677C43.2263 48.6702 43.4462 49.1458 43.4462 50.1991C43.4462 51.2527 43.2262 51.7286 42.9478 52.331C42.6253 53.0289 42.2239 53.8974 42.2239 55.4884C42.2239 57.0795 42.6253 57.9479 42.9478 58.6458C43.2262 59.2484 43.4462 59.7242 43.4462 60.7777C43.4462 61.4527 43.9935 61.9999 44.6684 61.9999C45.3434 61.9999 45.8906 61.4527 45.8906 60.7777C45.8906 59.1866 45.4892 58.3181 45.1667 57.6203C44.8883 57.0179 44.6683 56.5421 44.6683 55.4884C44.6683 54.4349 44.8883 53.959 45.1667 53.3566C45.4892 52.6587 45.8906 51.7903 45.8906 50.1991C45.8906 48.8463 45.6003 48.0166 45.3152 47.3693C46.5424 47.3589 47.6395 46.7205 48.2541 45.6558C48.8739 44.5824 48.8739 43.3004 48.2541 42.2268L47.5674 41.0374C48.03 40.7777 48.4656 40.4646 48.8647 40.1007V40.1005C55.3792 34.1604 62.9242 25.7374 61.9437 19.2961ZM21.0664 35.1242C21.3524 35.6193 21.1617 36.0563 21.0664 36.2213C20.9712 36.3862 20.688 36.7698 20.1164 36.7698H17.5366C16.965 36.7698 16.6818 36.3862 16.5866 36.2213C16.4913 36.0563 16.3006 35.6193 16.5866 35.1242L17.5934 33.3804C18.0242 33.4592 18.4642 33.5004 18.9093 33.5004H18.9104C19.3031 33.5004 19.6917 33.4671 20.0741 33.4057L21.0664 35.1242ZM22.1898 29.7838V29.7839C20.3163 31.4923 17.4997 31.4916 15.6381 29.7817C6.56438 21.448 1.78218 14.2342 2.51799 9.99C2.52601 9.94348 2.53135 9.89635 2.53403 9.8491C2.76614 5.68017 6.19781 2.4443 10.3658 2.4443C10.3952 2.4443 10.425 2.44454 10.4546 2.44479C13.0395 2.47321 15.4441 3.77455 16.8872 5.92552C17.3297 6.58518 18.0708 6.98443 18.8698 6.99329C19.6685 7.00471 20.4188 6.61943 20.8759 5.96961C22.3493 3.87439 24.7444 2.63087 27.2971 2.63087C27.3259 2.63087 27.3549 2.63111 27.3837 2.63135C31.4743 2.67654 34.8753 5.90754 35.1266 9.98709C35.1292 10.0268 35.1336 10.0665 35.1399 10.106C35.8413 14.4673 31.1212 21.6398 22.1898 29.7838ZM46.1373 43.4492C46.3938 43.8937 46.2228 44.2859 46.1373 44.4338C46.0518 44.5819 45.7976 44.9261 45.2846 44.9261H42.8301C42.3172 44.9261 42.0628 44.5819 41.9775 44.4338C41.8919 44.2858 41.7209 43.8936 41.9775 43.4492L42.9149 41.8254C43.3151 41.8961 43.7233 41.9336 44.1361 41.9338H44.1372C44.5001 41.9338 44.8596 41.9042 45.2136 41.8495L46.1373 43.4492ZM47.2177 38.2944C45.4577 39.8993 42.812 39.8985 41.0637 38.2926C35.7744 33.4345 32.0217 28.9809 30.0715 25.3356C33.7852 21.165 36.8728 16.6182 37.5254 12.5418C39.4006 12.9345 41.0727 14.045 42.1629 15.6704C42.595 16.3143 43.3184 16.7039 44.0982 16.7126C44.107 16.7127 44.1157 16.7127 44.1244 16.7127C44.8942 16.7127 45.6149 16.3404 46.0558 15.7133C47.4624 13.7132 49.7628 12.5368 52.1988 12.5622C56.06 12.6048 59.2706 15.6546 59.5078 19.5055C59.5104 19.5452 59.5147 19.5849 59.5211 19.6244C60.1851 23.7541 55.7007 30.559 47.2177 38.2944Z" fill="#BC7B77"/>
<path d="M6.72619 12.736C6.11621 12.736 5.5887 12.2801 5.51424 11.6593C5.08828 8.10845 7.06179 6.23575 7.14596 6.15777C7.14596 6.15777 8.07745 5.24559 8.94882 6.2247C9.72946 7.10202 8.82056 7.93828 8.82056 7.93828C8.77355 7.9848 7.66983 9.10529 7.94129 11.368C8.0217 12.0382 7.54363 12.6466 6.8734 12.7272C6.82397 12.7331 6.77477 12.736 6.72619 12.736Z" fill="#BC7B77"/>
</svg>
